<?xml version="1.0" encoding="iso-8859-1"?>
<!-- Generator: Adobe Illustrator 18.0.0, SVG Export Plug-In . SVG Version: 6.00 Build 0)  -->
<!DOCTYPE svg PUBLIC "-//W3C//DTD SVG 1.1//EN" "http://www.w3.org/Graphics/SVG/1.1/DTD/svg11.dtd">
<svg version="1.1" id="Capa_1" xmlns="http://www.w3.org/2000/svg" xmlns:xlink="http://www.w3.org/1999/xlink" x="0px" y="0px"
	 viewBox="0 0 288.021 288.021" style="enable-background:new 0 0 288.021 288.021;" xml:space="preserve">
<g>
	<path d="M144.01,230.365c47.617,0,86.356-38.739,86.356-86.355s-38.739-86.355-86.356-86.355
		c-47.616,0-86.356,38.739-86.356,86.355S96.394,230.365,144.01,230.365z M131.51,100.01c0-6.903,5.597-12.5,12.5-12.5
		c6.903,0,12.5,5.597,12.5,12.5v31.5h31.5c6.903,0,12.5,5.597,12.5,12.5s-5.597,12.5-12.5,12.5h-31.5v31.5
		c0,6.903-5.597,12.5-12.5,12.5c-6.903,0-12.5-5.597-12.5-12.5v-31.5h-31.5c-6.903,0-12.5-5.597-12.5-12.5s5.597-12.5,12.5-12.5
		h31.5V100.01z"/>
	<path d="M144.01,0.001c-17.753,0-34.762,3.237-50.478,9.139c5.988,5.967,10.268,13.648,12.024,22.239
		c12.068-4.132,25.003-6.378,38.453-6.378c65.623,0,119.011,53.387,119.011,119.009c0,65.622-53.388,119.01-119.011,119.01
		C78.388,263.02,25,209.632,25,144.01c0-23.637,6.928-45.685,18.857-64.224c-7.777-3.697-14.304-9.615-18.746-16.934
		C9.277,85.977,0,113.929,0,144.01c0,79.407,64.603,144.01,144.01,144.01c79.408,0,144.011-64.603,144.011-144.01
		C288.021,64.602,223.418,0.001,144.01,0.001z"/>
	<circle cx="62.611" cy="40.177" r="23.833"/>
</g>
<g>
</g>
<g>
</g>
<g>
</g>
<g>
</g>
<g>
</g>
<g>
</g>
<g>
</g>
<g>
</g>
<g>
</g>
<g>
</g>
<g>
</g>
<g>
</g>
<g>
</g>
<g>
</g>
<g>
</g>
</svg>
