<svg width="409" height="124" viewBox="0 0 409 124" version="1.1" xmlns="http://www.w3.org/2000/svg" xmlns:xlink="http://www.w3.org/1999/xlink"><defs><path id="path-1" d="M.667.477h61.446v94.77H.667z"/><path id="path-3" d="M.209.905h16.285v16.278H.209z"/><path id="path-5" d="M.667.477h61.446v94.77H.667z"/><path id="path-7" d="M.209.905h16.285v16.278H.209z"/></defs><g id="Page-1" stroke="none" stroke-width="1" fill="none" fill-rule="evenodd"><g id="positive-logo"><g id="Group"><g id="Group-14"><g id="Group-3" transform="translate(0 28)"><mask id="mask-2" fill="#fff"><use xlink:href="#path-1"/></mask><path d="M.667 1.955h11.106v8.396h.24C16.34 4.063 24.478.477 32.375.477c18.14 0 29.738 13.447 29.738 30.733 0 17.512-11.72 30.723-29.738 30.723-8.387 0-16.415-3.83-20.362-9.878h-.24v43.192H.667V1.955zM11.773 31.21c0 11.832 7.4 20.346 19.243 20.346 11.848 0 19.249-8.514 19.249-20.346 0-11.854-7.401-20.363-19.25-20.363-11.841 0-19.242 8.509-19.242 20.363z" id="Fill-1" fill="#FEFEFE" mask="url(#mask-2)"/></g><path d="M98.07 28.478c17.408 0 31.105 13.687 31.105 30.73 0 17.026-13.698 30.722-31.105 30.722-17.393 0-31.087-13.696-31.087-30.723 0-17.042 13.694-30.729 31.087-30.729m0 51.08c11.849 0 19.257-8.516 19.257-20.35 0-11.855-7.409-20.363-19.257-20.363-11.837 0-19.242 8.508-19.242 20.362 0 11.835 7.404 20.35 19.242 20.35" id="Fill-4" fill="#FEFEFE"/><path d="M166.916 44.642c-2.594-3.205-6.417-5.796-11.97-5.796-5.178 0-9.742 2.341-9.742 6.532 0 7.04 9.986 8.028 14.928 9.132 9.624 2.344 17.023 6.052 17.023 17.023 0 13.223-12.081 18.4-23.68 18.4-9.64 0-16.793-2.464-22.582-10.375l8.387-6.905c3.576 3.582 7.772 6.905 14.195 6.905 5.668 0 11.842-2.35 11.842-7.404 0-6.66-9.26-7.895-14.071-9-9.497-2.352-17.887-5.43-17.887-16.673 0-12.199 11.224-18.002 22.202-18.002 7.782 0 15.798 2.713 19.99 9.622l-8.635 6.541z" id="Fill-6" fill="#FEFEFE"/><path d="M189.842.843c4.446 0 8.147 3.707 8.147 8.144 0 4.439-3.701 8.14-8.147 8.14-4.437 0-8.134-3.701-8.134-8.14 0-4.437 3.697-8.144 8.134-8.144zm-5.55 87.605H195.4V29.954h-11.11v58.494z" id="Fill-8" fill="#FEFEFE"/><path d="M241.436 39.576h-15.917v26.536c0 6.54 0 13.444 8.39 13.444 2.588 0 5.678-.374 7.895-1.724v10.11c-2.591 1.488-7.77 1.99-9.99 1.99-17.151 0-17.397-10.494-17.397-19.866v-30.49h-12.833v-9.622h12.833v-16.4h11.102v16.4h15.917v9.622z" id="Fill-10" fill="#FEFEFE"/><path d="M256.172.843c4.44 0 8.14 3.707 8.14 8.144 0 4.439-3.7 8.14-8.14 8.14-4.443 0-8.141-3.701-8.141-8.14 0-4.437 3.698-8.144 8.14-8.144zm-5.56 87.605h11.107V29.954h-11.106v58.494z" id="Fill-12" fill="#FEFEFE"/></g><path id="Fill-15" fill="#FEFEFE" d="M268.52 29.955h12.83l17.526 44.797 16.777-44.797h11.845l-22.944 58.494h-12.216z"/><g id="Group-21" transform="translate(326 28)"><path d="M12.707 35.27c0 10.243 9.497 17.04 19.74 17.04 6.79 0 11.72-3.464 16.043-8.777l8.387 6.429c-6.166 8.013-14.681 11.97-25.915 11.97C12.462 61.932.857 48.6.857 31.209.857 13.687 13.567.479 31.09.479c20.609 0 28.503 15.798 28.503 30.854v3.938H12.707zm35.041-8.872c-.248-9.756-5.673-17.04-16.904-17.04-10.978 0-18.137 9.26-18.137 17.04h35.041z" id="Fill-16" fill="#FEFEFE"/><g id="Group-20" transform="translate(66 44)"><mask id="mask-4" fill="#fff"><use xlink:href="#path-3"/></mask><path d="M.209 9.046C.209 4.6 3.907.906 8.353.906c4.436 0 8.143 3.694 8.143 8.14 0 4.44-3.707 8.137-8.143 8.137-4.446 0-8.144-3.697-8.144-8.137" id="Fill-18" fill="#FEFEFE" mask="url(#mask-4)"/></g></g><path d="M386.578 14.134h1.663V3.412h3.957V1.854h-9.577v1.558h3.957v10.722zm7.271 0h1.663V4.036h.032l4.148 10.098h1.11l4.15-10.098h.034v10.098h1.663V1.854h-2.478l-3.87 9.296h-.07l-3.904-9.296h-2.478v12.28z" id="Fill-22" fill="#FEFEFE"/><g id="Group-25" transform="translate(0 28)"><mask id="mask-6" fill="#fff"><use xlink:href="#path-5"/></mask><path d="M.667 1.955h11.106v8.396h.24C16.34 4.063 24.478.477 32.375.477c18.14 0 29.738 13.447 29.738 30.733 0 17.512-11.72 30.723-29.738 30.723-8.387 0-16.415-3.83-20.362-9.878h-.24v43.192H.667V1.955zM11.773 31.21c0 11.832 7.4 20.346 19.243 20.346 11.848 0 19.249-8.514 19.249-20.346 0-11.854-7.401-20.363-19.25-20.363-11.841 0-19.242 8.509-19.242 20.363z" id="Fill-23" fill="#2DB7C4" mask="url(#mask-6)"/></g><path d="M98.07 28.478c17.408 0 31.105 13.687 31.105 30.73 0 17.026-13.698 30.722-31.105 30.722-17.393 0-31.087-13.696-31.087-30.723 0-17.042 13.694-30.729 31.087-30.729m0 51.08c11.849 0 19.257-8.516 19.257-20.35 0-11.855-7.409-20.363-19.257-20.363-11.837 0-19.242 8.508-19.242 20.362 0 11.835 7.404 20.35 19.242 20.35" id="Fill-26" fill="#2DB7C4"/><path d="M166.916 44.642c-2.594-3.205-6.417-5.796-11.97-5.796-5.178 0-9.742 2.341-9.742 6.532 0 7.04 9.986 8.028 14.928 9.132 9.624 2.344 17.023 6.052 17.023 17.023 0 13.223-12.081 18.4-23.68 18.4-9.64 0-16.793-2.464-22.582-10.375l8.387-6.905c3.576 3.582 7.772 6.905 14.195 6.905 5.668 0 11.842-2.35 11.842-7.404 0-6.66-9.26-7.895-14.071-9-9.497-2.352-17.887-5.43-17.887-16.673 0-12.199 11.224-18.002 22.202-18.002 7.782 0 15.798 2.713 19.99 9.622l-8.635 6.541z" id="Fill-28" fill="#2DB7C4"/><path d="M189.842.843c4.446 0 8.147 3.707 8.147 8.144 0 4.439-3.701 8.14-8.147 8.14-4.437 0-8.134-3.701-8.134-8.14 0-4.437 3.697-8.144 8.134-8.144zm-5.55 87.605H195.4V29.954h-11.11v58.494z" id="Fill-30" fill="#2DB7C4"/><path d="M241.436 39.576h-15.917v26.536c0 6.54 0 13.444 8.39 13.444 2.588 0 5.678-.374 7.895-1.724v10.11c-2.591 1.488-7.77 1.99-9.99 1.99-17.151 0-17.397-10.494-17.397-19.866v-30.49h-12.833v-9.622h12.833v-16.4h11.102v16.4h15.917v9.622z" id="Fill-32" fill="#2DB7C4"/><path d="M256.172.843c4.44 0 8.14 3.707 8.14 8.144 0 4.439-3.7 8.14-8.14 8.14-4.443 0-8.141-3.701-8.141-8.14 0-4.437 3.698-8.144 8.14-8.144zm-5.56 87.605h11.107V29.954h-11.106v58.494z" id="Fill-34" fill="#2DB7C4"/><path id="Fill-37" fill="#2DB7C4" d="M268.52 29.955h12.83l17.526 44.797 16.777-44.797h11.845l-22.944 58.494h-12.216z"/><g id="Group-43" transform="translate(326 28)"><path d="M12.707 35.27c0 10.243 9.497 17.04 19.74 17.04 6.79 0 11.72-3.464 16.043-8.777l8.387 6.429c-6.166 8.013-14.681 11.97-25.915 11.97C12.462 61.932.857 48.6.857 31.209.857 13.687 13.567.479 31.09.479c20.609 0 28.503 15.798 28.503 30.854v3.938H12.707zm35.041-8.872c-.248-9.756-5.673-17.04-16.904-17.04-10.978 0-18.137 9.26-18.137 17.04h35.041z" id="Fill-38" fill="#2DB7C4"/><g id="Group-42" transform="translate(66 44)"><mask id="mask-8" fill="#fff"><use xlink:href="#path-7"/></mask><path d="M.209 9.046C.209 4.6 3.907.906 8.353.906c4.436 0 8.143 3.694 8.143 8.14 0 4.44-3.707 8.137-8.143 8.137-4.446 0-8.144-3.697-8.144-8.137" id="Fill-40" fill="#2DB7C4" mask="url(#mask-8)"/></g></g><path d="M386.578 14.134h1.663V3.412h3.957V1.854h-9.577v1.558h3.957v10.722zm7.271 0h1.663V4.036h.032l4.148 10.098h1.11l4.15-10.098h.034v10.098h1.663V1.854h-2.478l-3.87 9.296h-.07l-3.904-9.296h-2.478v12.28z" id="Fill-44" fill="#2DB7C4"/></g></g></g></svg>